<svg width="21" height="20" viewBox="0 0 21 20" fill="none" xmlns="http://www.w3.org/2000/svg">
    <path
        d="M5.993 10C5.993 12.761 8.239 15.007 11 15.007C13.761 15.007 16.007 12.761 16.007 10C16.007 7.239 13.761 4.993 11 4.993C8.239 4.993
         5.993 7.239 5.993 10ZM11 6.993C12.658 6.993 14.007 8.342 14.007 10C14.007 11.658 12.658 13.007 11 13.007C9.342 13.007 7.993 11.658 7.993 
         10C7.993 8.342 9.342 6.993 11 6.993ZM9.998 17H11.998V20H9.998V17ZM9.998 0H11.998V3H9.998V0ZM0.998001 9H3.998V11H0.998001V9ZM17.998 
         9H20.998V11H17.998V9ZM3.219 16.363L5.339 14.241L6.754 15.655L4.634 17.777L3.219 16.363ZM15.24 4.344L17.362 2.222L18.776 3.636L16.654
          5.758L15.24 4.344ZM5.342 5.759L3.22 3.637L4.635 2.223L6.755 4.345L5.342 5.759ZM18.776 16.364L17.362 17.778L15.24 15.656L16.654 
          14.242L18.776 16.364Z"
        fill="black" />
</svg>